<mxfile host="app.diagrams.net" agent="Mozilla/5.0 (Windows NT 10.0; Win64; x64) AppleWebKit/537.36 (KHTML, like Gecko) Chrome/134.0.0.0 Safari/537.36" version="26.1.3">
  <diagram name="페이지-1" id="vSx0uqsL4xcAZqele08i">
    <mxGraphModel dx="1434" dy="746" grid="1" gridSize="10" guides="1" tooltips="1" connect="1" arrows="1" fold="1" page="1" pageScale="1" pageWidth="827" pageHeight="1169" math="0" shadow="0">
      <root>
        <mxCell id="0" />
        <mxCell id="1" parent="0" />
        <mxCell id="W-38GicQ1Ml4CvTCOR6f-1" value="&lt;font style=&quot;font-size: 20px;&quot;&gt;고객&lt;/font&gt;" style="rounded=0;whiteSpace=wrap;html=1;" vertex="1" parent="1">
          <mxGeometry x="180" y="330" width="120" height="60" as="geometry" />
        </mxCell>
        <mxCell id="W-38GicQ1Ml4CvTCOR6f-2" value="&lt;u&gt;전화번호&lt;/u&gt;" style="ellipse;whiteSpace=wrap;html=1;fontSize=16;" vertex="1" parent="1">
          <mxGeometry x="20" y="330" width="120" height="60" as="geometry" />
        </mxCell>
        <mxCell id="W-38GicQ1Ml4CvTCOR6f-3" value="&lt;u&gt;이메일&lt;/u&gt;" style="ellipse;whiteSpace=wrap;html=1;fontSize=16;" vertex="1" parent="1">
          <mxGeometry x="20" y="410" width="120" height="60" as="geometry" />
        </mxCell>
        <mxCell id="W-38GicQ1Ml4CvTCOR6f-4" value="고객명" style="ellipse;whiteSpace=wrap;html=1;fontSize=16;" vertex="1" parent="1">
          <mxGeometry x="180" y="410" width="120" height="60" as="geometry" />
        </mxCell>
        <mxCell id="W-38GicQ1Ml4CvTCOR6f-5" value="&lt;font style=&quot;color: rgb(255, 51, 51);&quot;&gt;지역&lt;/font&gt;" style="ellipse;whiteSpace=wrap;html=1;fontSize=16;" vertex="1" parent="1">
          <mxGeometry x="340" y="410" width="120" height="60" as="geometry" />
        </mxCell>
        <mxCell id="W-38GicQ1Ml4CvTCOR6f-6" value="&lt;font style=&quot;color: rgb(255, 51, 51);&quot;&gt;주소&lt;/font&gt;" style="ellipse;whiteSpace=wrap;html=1;fontSize=16;" vertex="1" parent="1">
          <mxGeometry x="340" y="330" width="120" height="60" as="geometry" />
        </mxCell>
        <mxCell id="W-38GicQ1Ml4CvTCOR6f-7" value="가입일" style="ellipse;whiteSpace=wrap;html=1;fontSize=16;" vertex="1" parent="1">
          <mxGeometry x="180" y="250" width="120" height="60" as="geometry" />
        </mxCell>
        <mxCell id="W-38GicQ1Ml4CvTCOR6f-8" value="&lt;font style=&quot;color: rgb(255, 51, 51);&quot;&gt;&lt;u&gt;고객 코드&lt;/u&gt;&lt;/font&gt;" style="ellipse;whiteSpace=wrap;html=1;fontSize=16;" vertex="1" parent="1">
          <mxGeometry x="20" y="250" width="120" height="60" as="geometry" />
        </mxCell>
        <mxCell id="W-38GicQ1Ml4CvTCOR6f-9" value="" style="endArrow=classic;html=1;rounded=0;" edge="1" parent="1" target="W-38GicQ1Ml4CvTCOR6f-8">
          <mxGeometry width="50" height="50" relative="1" as="geometry">
            <mxPoint x="180" y="330" as="sourcePoint" />
            <mxPoint x="230" y="280" as="targetPoint" />
          </mxGeometry>
        </mxCell>
        <mxCell id="W-38GicQ1Ml4CvTCOR6f-10" value="" style="endArrow=classic;html=1;rounded=0;entryX=1;entryY=0.5;entryDx=0;entryDy=0;" edge="1" parent="1" target="W-38GicQ1Ml4CvTCOR6f-2">
          <mxGeometry width="50" height="50" relative="1" as="geometry">
            <mxPoint x="180" y="360" as="sourcePoint" />
            <mxPoint x="230" y="310" as="targetPoint" />
          </mxGeometry>
        </mxCell>
        <mxCell id="W-38GicQ1Ml4CvTCOR6f-11" value="" style="endArrow=classic;html=1;rounded=0;entryX=0.5;entryY=1;entryDx=0;entryDy=0;" edge="1" parent="1" target="W-38GicQ1Ml4CvTCOR6f-7">
          <mxGeometry width="50" height="50" relative="1" as="geometry">
            <mxPoint x="240" y="330" as="sourcePoint" />
            <mxPoint x="290" y="280" as="targetPoint" />
          </mxGeometry>
        </mxCell>
        <mxCell id="W-38GicQ1Ml4CvTCOR6f-13" value="" style="endArrow=classic;html=1;rounded=0;entryX=0;entryY=0.5;entryDx=0;entryDy=0;" edge="1" parent="1" target="W-38GicQ1Ml4CvTCOR6f-6">
          <mxGeometry width="50" height="50" relative="1" as="geometry">
            <mxPoint x="300" y="360" as="sourcePoint" />
            <mxPoint x="350" y="310" as="targetPoint" />
          </mxGeometry>
        </mxCell>
        <mxCell id="W-38GicQ1Ml4CvTCOR6f-14" value="" style="endArrow=classic;html=1;rounded=0;" edge="1" parent="1" target="W-38GicQ1Ml4CvTCOR6f-3">
          <mxGeometry width="50" height="50" relative="1" as="geometry">
            <mxPoint x="180" y="385" as="sourcePoint" />
            <mxPoint x="230" y="335" as="targetPoint" />
          </mxGeometry>
        </mxCell>
        <mxCell id="W-38GicQ1Ml4CvTCOR6f-15" value="" style="endArrow=classic;html=1;rounded=0;entryX=0.5;entryY=0;entryDx=0;entryDy=0;" edge="1" parent="1" target="W-38GicQ1Ml4CvTCOR6f-4">
          <mxGeometry width="50" height="50" relative="1" as="geometry">
            <mxPoint x="240" y="390" as="sourcePoint" />
            <mxPoint x="290" y="340" as="targetPoint" />
          </mxGeometry>
        </mxCell>
        <mxCell id="W-38GicQ1Ml4CvTCOR6f-16" value="" style="endArrow=classic;html=1;rounded=0;" edge="1" parent="1" target="W-38GicQ1Ml4CvTCOR6f-5">
          <mxGeometry width="50" height="50" relative="1" as="geometry">
            <mxPoint x="300" y="390" as="sourcePoint" />
            <mxPoint x="350" y="340" as="targetPoint" />
          </mxGeometry>
        </mxCell>
        <mxCell id="W-38GicQ1Ml4CvTCOR6f-19" value="&lt;font style=&quot;color: rgb(0, 0, 0);&quot;&gt;상세주소&lt;/font&gt;" style="ellipse;whiteSpace=wrap;html=1;fontSize=16;strokeColor=#000000;" vertex="1" parent="1">
          <mxGeometry x="500" y="330" width="120" height="60" as="geometry" />
        </mxCell>
        <mxCell id="W-38GicQ1Ml4CvTCOR6f-20" value="&lt;font style=&quot;color: rgb(0, 0, 0);&quot;&gt;기본주소&lt;/font&gt;" style="ellipse;whiteSpace=wrap;html=1;fontSize=16;strokeColor=#000000;" vertex="1" parent="1">
          <mxGeometry x="500" y="250" width="120" height="60" as="geometry" />
        </mxCell>
        <mxCell id="W-38GicQ1Ml4CvTCOR6f-21" value="" style="endArrow=classic;html=1;rounded=0;exitX=1;exitY=0;exitDx=0;exitDy=0;" edge="1" parent="1" source="W-38GicQ1Ml4CvTCOR6f-6">
          <mxGeometry width="50" height="50" relative="1" as="geometry">
            <mxPoint x="450" y="330" as="sourcePoint" />
            <mxPoint x="500" y="280" as="targetPoint" />
          </mxGeometry>
        </mxCell>
        <mxCell id="W-38GicQ1Ml4CvTCOR6f-22" value="" style="endArrow=classic;html=1;rounded=0;entryX=0;entryY=0.5;entryDx=0;entryDy=0;" edge="1" parent="1" target="W-38GicQ1Ml4CvTCOR6f-19">
          <mxGeometry width="50" height="50" relative="1" as="geometry">
            <mxPoint x="460" y="360" as="sourcePoint" />
            <mxPoint x="510" y="310" as="targetPoint" />
          </mxGeometry>
        </mxCell>
      </root>
    </mxGraphModel>
  </diagram>
</mxfile>
